<svg width="80" height="80" viewBox="0 0 80 80" fill="none" xmlns="http://www.w3.org/2000/svg">
<path fill-rule="evenodd" clip-rule="evenodd" d="M79.296 0V79.296H0V0H79.296Z" fill="white"/>
<path fill-rule="evenodd" clip-rule="evenodd" d="M0 8.20789e-06H23.5105C23.9025 3.65671 23.3427 8.62865 24.8957 13.4952C26.7655 19.3539 32.1066 21.8699 33.8838 26.0618L3.56031 15.0165L1.67284 24.7884L15.9878 28.5792C12.5469 29.7086 10.0892 32.6921 10.0892 36.1954C10.0892 40.6685 14.097 44.2946 19.041 44.2946C23.985 44.2946 27.9932 40.6685 27.9932 36.1954C27.9932 34.3418 27.3046 32.6347 26.1472 31.2699L34.209 33.405L34.8523 29.2415C35.0844 30.6222 35.1985 32.5142 34.8605 34.8655C33.7232 42.7704 27.8137 48.6038 22.1814 53.6037C15.7353 59.3262 15.387 65.2514 22.5828 69.5665C26.3 69.4637 28.5292 69.3847 37.2863 69.4833C33.0762 71.1759 27.0771 72.1849 21.5956 73.6756C17.3758 71.0284 11.9763 66.7413 9.67118 62.1529C7.87135 58.5715 6.23635 55.5149 4.81333 52.7506C3.48106 54.4487 1.46431 58.1292 0.000115019 61.8036V8.20789e-06H0ZM55.7851 8.20789e-06H79.296V61.804C77.8318 58.1291 75.8151 54.4486 74.4824 52.7504C73.0594 55.5148 71.4244 58.5713 69.6249 62.1528C67.3194 66.7412 61.92 71.0283 57.7002 73.6755C52.2187 72.1848 46.2195 71.1756 42.0098 69.4832C50.7666 69.3845 52.9961 69.4636 56.713 69.5664C63.9088 65.2513 63.5603 59.3261 57.1144 53.6035C51.4821 48.6036 45.5724 42.7703 44.4356 34.8654C44.0973 32.5142 44.2114 30.6221 44.4438 29.2414L45.0872 33.4049L53.1485 31.2698C51.9912 32.6346 51.303 34.3418 51.303 36.1952C51.303 40.6683 55.3109 44.2944 60.2549 44.2944C65.1992 44.2944 69.2071 40.6683 69.2071 36.1952C69.2071 32.692 66.7492 29.7085 63.3084 28.5791L77.623 24.7883L75.7359 15.0164L45.412 26.0617C47.1891 21.8698 52.5308 19.3538 54.4 13.4951C55.953 8.62865 55.3937 3.65659 55.7852 -0.000106812L55.7851 8.20789e-06ZM28.3166 55.8807C28.3166 55.8807 38.9496 49.5983 50.979 55.8807C48.9461 64.5222 45.0141 65.2365 39.648 65.3257C34.2814 65.2366 30.3499 64.5222 28.3166 55.8807Z" fill="black"/>
</svg>
